<svg width="20" height="18" viewBox="0 0 20 18" fill="none" xmlns="http://www.w3.org/2000/svg">
<path d="M18.3375 10.4625L19.9789 3.24024C20.0974 2.71878 19.7011 2.22222 19.1663 2.22222H5.52806L5.20979 0.666319C5.13049 0.278507 4.78924 0 4.39337 0H0.833333C0.37309 0 0 0.37309 0 0.833333V1.38889C0 1.84913 0.37309 2.22222 0.833333 2.22222H3.25983L5.69899 14.147C5.11545 14.4826 4.72222 15.1119 4.72222 15.8333C4.72222 16.9072 5.59278 17.7778 6.66667 17.7778C7.74056 17.7778 8.61111 16.9072 8.61111 15.8333C8.61111 15.2891 8.38726 14.7974 8.02695 14.4444H15.3064C14.9461 14.7974 14.7222 15.2891 14.7222 15.8333C14.7222 16.9072 15.5928 17.7778 16.6667 17.7778C17.7406 17.7778 18.6111 16.9072 18.6111 15.8333C18.6111 15.0635 18.1636 14.3982 17.5146 14.0832L17.7062 13.2402C17.8247 12.7188 17.4283 12.2222 16.8936 12.2222H7.57351L7.34625 11.1111H17.5249C17.914 11.1111 18.2513 10.8419 18.3375 10.4625Z" fill="#EFF0F6"/>
</svg>
