<svg width="20" height="20" viewBox="0 0 20 20" fill="none" xmlns="http://www.w3.org/2000/svg">
<path d="M17.436 19.3333L11.08 12.9787C8.20509 14.8752 4.36135 14.2885 2.1831 11.6207C0.00485545 8.95293 0.198793 5.06951 2.632 2.632C5.06908 0.197858 8.95294 0.00308019 11.6213 2.18118C14.2897 4.35928 14.8767 8.20346 12.98 11.0787L19.3333 17.436L17.436 19.3333ZM7.37867 3.35199C5.45767 3.35078 3.80331 4.70669 3.42732 6.59054C3.05132 8.47439 4.05842 10.3615 5.8327 11.0978C7.60699 11.8341 9.65432 11.2146 10.7226 9.61802C11.791 8.02148 11.5828 5.89262 10.2253 4.53333C9.47233 3.77512 8.44726 3.34973 7.37867 3.35199Z" fill="#A0A3BD"/>
</svg>
